<svg xmlns="http://www.w3.org/2000/svg" viewBox="0 0 1348.45 407.65"><defs><style>.cls-1{fill:#31758e;}.cls-2{fill:none;stroke:#31758e;stroke-miterlimit:10;}</style></defs><g id="Layer_2" data-name="Layer 2"><path class="cls-1" d="M270.38,76.55v39.31H210.2V288.25H163.93V115.86H104.35V76.55Z"/><path class="cls-1" d="M388.34,288.73h-41.1v-19.3c-11.86,16.55-26.75,22.34-43.85,22.34-39.71,0-50.47-31.72-50.47-67.57V147.26H294v76.11c0,19.58,7.17,34.48,26.2,34.48s27-15.17,27-34.75V147.26h41.1Z"/><path class="cls-1" d="M569.2,278.81c0,55.7-36.4,77.49-76.66,77.49-31.44,0-52.68-8-67-19.58l16.27-32c8.27,7.17,26.75,16,42.47,16,21.24,0,43.85-6.34,43.85-37.23V268.05c-10.2,14.62-23.72,23.72-44.4,23.72-43,0-68.95-33.1-68.95-74.46,0-39.72,24-73.09,68.12-73.09a56.66,56.66,0,0,1,45.23,22.34v-19.3H569.2ZM492.26,258.4c20.13,0,37-13,37-38.61,0-26.2-15.72-42.2-38.06-42.2-22.62,0-35.3,18.2-35.3,40C455.86,240.19,469.64,258.4,492.26,258.4Z"/><path class="cls-1" d="M684.28,291.77c-20.68,0-34.2-9.1-44.4-23.72v20.68H598.79V89.34h41.09v77.22a56.66,56.66,0,0,1,45.23-22.34c44.12,0,68.12,33.37,68.12,73.09C753.23,258.67,727.3,291.77,684.28,291.77Zm-7.45-114.18c-22.34,0-38.06,16-38.06,42.2,0,25.64,16.83,38.61,37,38.61,22.61,0,36.4-18.21,36.4-40.82C712.13,195.79,699.45,177.59,676.83,177.59Z"/><path class="cls-1" d="M855.19,144.22c41.37,0,77.78,29.79,77.78,73.64,0,44.12-36.41,73.91-77.78,73.91-41.09,0-77.77-29.51-77.77-73.91C777.42,173.73,814.1,144.22,855.19,144.22Zm0,112.25c20.41,0,37.79-16.55,37.79-38.61a37.79,37.79,0,1,0-75.57,0C817.41,240.19,835.06,256.47,855.19,256.47Z"/><path class="cls-1" d="M1105.61,147.26V288.73h-41.1V268.05c-10.2,14.62-23.71,23.72-44.4,23.72-43,0-68.94-33.1-68.94-74.46,0-39.72,24-73.09,68.11-73.09a56.66,56.66,0,0,1,45.23,22.34v-19.3ZM1028.66,258.4c20.13,0,37-13,37-38.61,0-26.2-15.72-42.2-38.06-42.2-22.62,0-35.3,18.2-35.3,40C992.26,240.19,1006.05,258.4,1028.66,258.4Z"/><path class="cls-1" d="M1195.65,147.26h39.16v32.26h-39.16v66.19c0,6.07,2.48,12.41,10.48,12.41s10.75-6.62,10.75-13.24a44.54,44.54,0,0,0-1.93-12.13h32.54c2.49,5.24,3.31,11.86,3.31,16.82,0,21-13.79,42.2-47.16,42.2-24.82,0-49.09-8.83-49.09-49.92V179.52h-21.23V147.26h24.27l6.34-34.75h31.72Z"/><circle class="cls-2" cx="1248.57" cy="115.81" r="8.4"/><path class="cls-1" d="M1248.55,112.3c1.65,0,2.47,1,2.47,2.09a2,2,0,0,1-1.62,2l1.73,2.9h-1.37l-1.61-2.8h-.87v2.8h-1.15v-7Zm0,.94h-1.27v2.34h1.27a1.12,1.12,0,0,0,1.29-1.19C1249.84,113.69,1249.44,113.24,1248.55,113.24Z"/></g></svg>